<svg xmlns="http://www.w3.org/2000/svg" width="65" height="61" fill="none" xmlns:v="https://vecta.io/nano"><rect x=".038" y=".778" width="64" height="60" rx="12" fill="#501cb7"/><path d="M33.638 32.106a4.8 4.8 0 0 0-1.6-9.329 4.8 4.8 0 0 0-1.6 9.329v5.072a1.6 1.6 0 1 0 3.2 0v-5.072zm-3.2-4.528a1.6 1.6 0 0 0 3.2 0 1.6 1.6 0 1 0-3.2 0zm1.6-12.8c-8.837 0-16 7.163-16 16s7.163 16 16 16 16-7.163 16-16-7.163-16-16-16zm-12.8 16a12.8 12.8 0 0 0 25.6 0 12.8 12.8 0 0 0-25.6 0z" fill-rule="evenodd" fill="#fff"/></svg>