<svg xmlns="http://www.w3.org/2000/svg" width="65" height="65" fill="none" xmlns:v="https://vecta.io/nano"><rect x=".038" y=".87" width="64" height="64" rx="12" fill="#501cb7"/><path d="M25.181 39.728l-1.342-.671a1.5 1.5 0 0 0 2.012 2.012l-.671-1.342zm4.571-9.143l-.671-1.342a1.5 1.5 0 0 0-.671.671l1.342.671zm9.143-4.571l1.342.671a1.5 1.5 0 0 0-2.013-2.012l.671 1.342zm-4.571 9.143l.671 1.342a1.5 1.5 0 0 0 .671-.671l-1.342-.671zM32.038 47.37c-8.008 0-14.5-6.492-14.5-14.5h-3c0 9.665 7.835 17.5 17.5 17.5v-3zm14.5-14.5c0 8.008-6.492 14.5-14.5 14.5v3c9.665 0 17.5-7.835 17.5-17.5h-3zm-14.5-14.5c8.008 0 14.5 6.492 14.5 14.5h3c0-9.665-7.835-17.5-17.5-17.5v3zm0-3c-9.665 0-17.5 7.835-17.5 17.5h3c0-8.008 6.492-14.5 14.5-14.5v-3zm-5.515 25.028l4.571-9.143-2.683-1.342-4.571 9.143 2.683 1.342zm3.901-8.472l9.143-4.571-1.342-2.683-9.143 4.571 1.342 2.683zm7.13-6.584l-4.571 9.143 2.683 1.342 4.571-9.143-2.683-1.342zm-3.901 8.472l-9.143 4.571 1.342 2.683 9.143-4.571-1.342-2.683z" fill="#fcfdff"/></svg>