<svg xmlns="http://www.w3.org/2000/svg" width="65" height="61" fill="none" xmlns:v="https://vecta.io/nano"><rect x=".188" y=".778" width="64" height="60" rx="12" fill="#501cb7"/><path d="M30.398 25.053v6.577a1.81 1.81 0 0 0 .872 1.537l5.55 3.306c.64.375 1.459.161 1.832-.465.374-.643.178-1.465-.463-1.841l-5.106-3.056v-6.076c-.018-.715-.623-1.323-1.352-1.323a1.35 1.35 0 0 0-1.334 1.34zm17.79 1.34v-9.454c0-.804-.961-1.197-1.512-.625l-3.167 3.181a16.02 16.02 0 0 0-5.897-3.762 15.96 15.96 0 0 0-6.93-.885c-7.454.679-13.591 6.702-14.41 14.19-.433 4.199.795 8.4 3.418 11.697s6.432 5.427 10.604 5.929a15.96 15.96 0 0 0 11.697-3.246 16.1 16.1 0 0 0 6.071-10.556 1.79 1.79 0 0 0-1.779-2.002c-.889 0-1.637.661-1.743 1.537-.765 6.237-6.12 11.062-12.542 10.973-6.6-.089-12.168-5.683-12.275-12.331-.107-6.97 5.533-12.689 12.453-12.689 3.433 0 6.547 1.412 8.806 3.664l-3.718 3.735c-.569.572-.178 1.537.623 1.537h9.411c.498 0 .889-.393.889-.894z" fill="#fff"/></svg>