<svg xmlns="http://www.w3.org/2000/svg" width="65" height="65" fill="none" xmlns:v="https://vecta.io/nano"><rect x=".188" y=".87" width="64.8" height="64" rx="12" fill="#501cb7"/><path d="M32.587 23.064c-3.419 0-6.194 2.774-6.194 6.194s2.774 6.194 6.194 6.194 6.194-2.774 6.194-6.194-2.774-6.193-6.194-6.193zm0 9.29a3.1 3.1 0 0 1-3.097-3.097 3.1 3.1 0 0 1 3.097-3.097 3.1 3.1 0 0 1 3.097 3.097 3.1 3.1 0 0 1-3.097 3.097zm0-15.484a16 16 0 1 0 0 32 16 16 0 1 0 0-32zm0 28.903a12.83 12.83 0 0 1-8.394-3.123c.961-1.484 2.606-2.49 4.49-2.548 1.342.413 2.619.619 3.903.619s2.561-.2 3.903-.619c1.884.064 3.529 1.064 4.49 2.548a12.83 12.83 0 0 1-8.394 3.123zm10.497-5.426c-1.574-2.026-4.007-3.348-6.781-3.348-.658 0-1.677.619-3.716.619-2.032 0-3.058-.619-3.716-.619-2.768 0-5.2 1.322-6.781 3.348a12.81 12.81 0 0 1-2.406-7.477 12.92 12.92 0 0 1 12.903-12.903A12.92 12.92 0 0 1 45.491 32.87a12.81 12.81 0 0 1-2.406 7.477z" fill="#fff"/></svg>