<svg xmlns="http://www.w3.org/2000/svg" width="21" height="21" fill="none" xmlns:v="https://vecta.io/nano"><path d="M17.781 3.285c-1.87-1.88-4.36-2.91-7.01-2.91a9.93 9.93 0 0 0-9.91 9.91 9.94 9.94 0 0 0 1.32 4.95l-1.4 5.14 5.25-1.38c1.45.79 3.08 1.21 4.74 1.21a9.93 9.93 0 0 0 9.91-9.91c0-2.65-1.03-5.14-2.9-7.01zm-7.01 15.24a8.26 8.26 0 0 1-4.2-1.15l-.3-.18-3.12.82.83-3.04-.2-.31c-.82-1.31-1.26-2.83-1.26-4.38 0-4.54 3.7-8.24 8.24-8.24 2.2 0 4.27.86 5.82 2.42 1.56 1.56 2.41 3.63 2.41 5.83.02 4.54-3.68 8.23-8.22 8.23zm4.52-6.16l-1.69-.81c-.23-.08-.39-.12-.56.12-.17.25-.64.81-.78.97-.14.17-.29.19-.54.06-.25-.12-1.05-.39-1.99-1.23-.74-.66-1.23-1.47-1.38-1.72-.14-.25-.02-.38.11-.51.11-.11.25-.29.37-.43s.17-.25.25-.41c.08-.17.04-.31-.02-.43s-.56-1.34-.76-1.84c-.2-.48-.41-.42-.56-.43h-.48c-.17 0-.43.06-.66.31-.22.25-.86.85-.86 2.07s.89 2.4 1.01 2.56c.12.17 1.75 2.67 4.23 3.74.59.26 1.05.41 1.41.52.59.19 1.13.16 1.56.1.48-.07 1.47-.6 1.67-1.18.21-.58.21-1.07.14-1.18s-.22-.16-.47-.28z" fill="#5b17c2"/></svg>