<svg width="192" height="62" viewBox="0 0 192 62" fill="none" xmlns="http://www.w3.org/2000/svg">
<path d="M66.216 45.9199V41.9839L78.376 27.0079L78.472 27.6479L77.448 26.3039L78.152 26.8479H66.632V22.5599H84.584V26.4959L72.392 41.4719L72.264 40.7679L73.352 42.2079L72.584 41.5999H84.584V45.9199H66.216ZM95.8368 46.5279C94.3434 46.5279 93.0208 46.2719 91.8688 45.7599C90.7381 45.2479 89.7888 44.5653 89.0208 43.7119C88.2741 42.8373 87.6981 41.8666 87.2928 40.7999C86.9088 39.7119 86.7168 38.6026 86.7168 37.4719V36.8319C86.7168 35.6586 86.9088 34.5386 87.2928 33.4719C87.6981 32.3839 88.2741 31.4133 89.0208 30.5599C89.7674 29.7066 90.6954 29.0346 91.8048 28.5439C92.9354 28.0319 94.2154 27.7759 95.6448 27.7759C97.5221 27.7759 99.1008 28.2026 100.381 29.0559C101.682 29.8879 102.674 30.9866 103.357 32.3519C104.039 33.6959 104.381 35.1679 104.381 36.7679V38.4959H88.8608V35.5839H101.277L99.6128 36.9279C99.6128 35.8826 99.4634 34.9866 99.1648 34.2399C98.8661 33.4933 98.4181 32.9279 97.8208 32.5439C97.2448 32.1386 96.5194 31.9359 95.6448 31.9359C94.7488 31.9359 93.9914 32.1386 93.3728 32.5439C92.7541 32.9493 92.2848 33.5466 91.9648 34.3359C91.6448 35.1039 91.4848 36.0533 91.4848 37.1839C91.4848 38.2293 91.6341 39.1466 91.9328 39.9359C92.2314 40.7039 92.7008 41.3013 93.3408 41.7279C93.9808 42.1546 94.8128 42.3679 95.8368 42.3679C96.7754 42.3679 97.5434 42.1866 98.1408 41.8239C98.7381 41.4613 99.1434 41.0133 99.3568 40.4799H104.061C103.805 41.6533 103.303 42.6986 102.557 43.6159C101.81 44.5333 100.871 45.2479 99.7408 45.7599C98.6101 46.2719 97.3088 46.5279 95.8368 46.5279ZM120.126 45.9199L114.59 37.7279H112.126L119.262 28.3839H124.638L117.918 37.0879L117.982 34.5919L125.886 45.9199H120.126ZM107.774 45.9199V22.5599H112.894V45.9199H107.774ZM136.068 46.5279C134.532 46.5279 133.166 46.2933 131.972 45.8239C130.777 45.3333 129.764 44.6719 128.932 43.8399C128.121 43.0079 127.502 42.0586 127.076 40.9919C126.649 39.9039 126.436 38.7626 126.436 37.5679V36.8319C126.436 35.6159 126.649 34.4639 127.076 33.3759C127.524 32.2666 128.164 31.2959 128.996 30.4639C129.849 29.6319 130.873 28.9813 132.068 28.5119C133.262 28.0213 134.596 27.7759 136.068 27.7759C137.582 27.7759 138.926 28.0213 140.1 28.5119C141.294 28.9813 142.308 29.6319 143.14 30.4639C143.972 31.2959 144.612 32.2666 145.06 33.3759C145.508 34.4639 145.732 35.6159 145.732 36.8319V37.5679C145.732 38.7626 145.518 39.9039 145.092 40.9919C144.665 42.0586 144.036 43.0079 143.204 43.8399C142.393 44.6719 141.39 45.3333 140.196 45.8239C139.001 46.2933 137.625 46.5279 136.068 46.5279ZM136.068 42.2079C137.07 42.2079 137.902 41.9946 138.564 41.5679C139.225 41.1413 139.726 40.5439 140.068 39.7759C140.43 39.0079 140.612 38.1546 140.612 37.2159C140.612 36.2133 140.43 35.3386 140.068 34.5919C139.705 33.8239 139.182 33.2159 138.5 32.7679C137.838 32.3199 137.028 32.0959 136.068 32.0959C135.129 32.0959 134.318 32.3199 133.635 32.7679C132.953 33.2159 132.43 33.8239 132.068 34.5919C131.726 35.3386 131.556 36.2133 131.556 37.2159C131.556 38.1546 131.726 39.0079 132.068 39.7759C132.409 40.5439 132.921 41.1413 133.604 41.5679C134.286 41.9946 135.108 42.2079 136.068 42.2079ZM149.529 45.9199V22.5599H154.681V45.9199H149.529ZM147.449 26.3359V22.5599H154.681V26.3359H147.449ZM169.991 45.9199V40.7359H169.127V35.1039C169.127 34.2079 168.913 33.5359 168.487 33.0879C168.06 32.6399 167.377 32.4159 166.439 32.4159C165.969 32.4159 165.351 32.4266 164.583 32.4479C163.815 32.4693 163.025 32.5013 162.215 32.5439C161.404 32.5866 160.668 32.6293 160.007 32.6719V28.3519C160.497 28.3093 161.073 28.2666 161.735 28.2239C162.396 28.1813 163.079 28.1493 163.783 28.1279C164.487 28.1066 165.148 28.0959 165.767 28.0959C167.559 28.0959 169.063 28.3519 170.279 28.8639C171.516 29.3759 172.455 30.1546 173.095 31.1999C173.735 32.2239 174.055 33.5466 174.055 35.1679V45.9199H169.991ZM164.391 46.3679C163.132 46.3679 162.023 46.1439 161.062 45.6959C160.124 45.2479 159.388 44.6079 158.855 43.7759C158.321 42.9226 158.055 41.9093 158.055 40.7359C158.055 39.4559 158.385 38.4106 159.047 37.5999C159.708 36.7679 160.636 36.1599 161.831 35.7759C163.025 35.3706 164.401 35.1679 165.959 35.1679H169.703V38.0159H165.927C165.031 38.0159 164.337 38.2399 163.847 38.6879C163.377 39.1146 163.143 39.7013 163.143 40.4479C163.143 41.1519 163.377 41.7279 163.847 42.1759C164.337 42.6026 165.031 42.8159 165.927 42.8159C166.503 42.8159 167.015 42.7199 167.463 42.5279C167.932 42.3146 168.316 41.9626 168.615 41.4719C168.913 40.9813 169.084 40.2986 169.127 39.4239L170.343 40.7039C170.236 41.9199 169.937 42.9439 169.447 43.7759C168.977 44.6079 168.316 45.2479 167.463 45.6959C166.631 46.1439 165.607 46.3679 164.391 46.3679Z" fill="#333333"/>
<path  d="M33.4583 14.9199L13.875 38.9199H31.5L29.5417 54.9199L49.125 30.9199H31.5L33.4583 14.9199Z" fill="#6016C6" stroke="#6016C6" stroke-width="5" stroke-linecap="round" stroke-linejoin="round"/>
</svg>
