<svg width="125" height="36" viewBox="0 0 125 36" fill="none" xmlns="http://www.w3.org/2000/svg">
<path d="M16.25 5.58325L3.75 21.0833H15L13.75 31.4166L26.25 15.9166H15L16.25 5.58325Z" fill="white" stroke="white" stroke-width="3" stroke-linecap="round" stroke-linejoin="round"/>
<path d="M41.912 26V23.048L51.032 11.816L51.104 12.296L50.336 11.288L50.864 11.696H42.224V8.48H55.688V11.432L46.544 22.664L46.448 22.136L47.264 23.216L46.688 22.76H55.688V26H41.912ZM64.1276 26.456C63.0076 26.456 62.0156 26.264 61.1516 25.88C60.3036 25.496 59.5916 24.984 59.0156 24.344C58.4556 23.688 58.0236 22.96 57.7196 22.16C57.4316 21.344 57.2876 20.512 57.2876 19.664V19.184C57.2876 18.304 57.4316 17.464 57.7196 16.664C58.0236 15.848 58.4556 15.12 59.0156 14.48C59.5756 13.84 60.2716 13.336 61.1036 12.968C61.9516 12.584 62.9116 12.392 63.9836 12.392C65.3916 12.392 66.5756 12.712 67.5356 13.352C68.5116 13.976 69.2556 14.8 69.7676 15.824C70.2796 16.832 70.5356 17.936 70.5356 19.136V20.432H58.8956V18.248H68.2076L66.9596 19.256C66.9596 18.472 66.8476 17.8 66.6236 17.24C66.3996 16.68 66.0636 16.256 65.6156 15.968C65.1836 15.664 64.6396 15.512 63.9836 15.512C63.3116 15.512 62.7436 15.664 62.2796 15.968C61.8156 16.272 61.4636 16.72 61.2236 17.312C60.9836 17.888 60.8636 18.6 60.8636 19.448C60.8636 20.232 60.9756 20.92 61.1996 21.512C61.4236 22.088 61.7756 22.536 62.2556 22.856C62.7356 23.176 63.3596 23.336 64.1276 23.336C64.8316 23.336 65.4076 23.2 65.8556 22.928C66.3036 22.656 66.6076 22.32 66.7676 21.92H70.2956C70.1036 22.8 69.7276 23.584 69.1676 24.272C68.6076 24.96 67.9036 25.496 67.0556 25.88C66.2076 26.264 65.2316 26.456 64.1276 26.456ZM82.3441 26L78.1921 19.856H76.3441L81.6961 12.848H85.7281L80.6881 19.376L80.7361 17.504L86.6641 26H82.3441ZM73.0801 26V8.48H76.9201V26H73.0801ZM94.3006 26.456C93.1486 26.456 92.1246 26.28 91.2286 25.928C90.3326 25.56 89.5726 25.064 88.9486 24.44C88.3406 23.816 87.8766 23.104 87.5566 22.304C87.2366 21.488 87.0766 20.632 87.0766 19.736V19.184C87.0766 18.272 87.2366 17.408 87.5566 16.592C87.8926 15.76 88.3726 15.032 88.9966 14.408C89.6366 13.784 90.4046 13.296 91.3006 12.944C92.1966 12.576 93.1966 12.392 94.3006 12.392C95.4366 12.392 96.4446 12.576 97.3246 12.944C98.2206 13.296 98.9806 13.784 99.6046 14.408C100.229 15.032 100.709 15.76 101.045 16.592C101.381 17.408 101.549 18.272 101.549 19.184V19.736C101.549 20.632 101.389 21.488 101.069 22.304C100.749 23.104 100.277 23.816 99.6526 24.44C99.0446 25.064 98.2926 25.56 97.3966 25.928C96.5006 26.28 95.4686 26.456 94.3006 26.456ZM94.3006 23.216C95.0526 23.216 95.6766 23.056 96.1726 22.736C96.6686 22.416 97.0446 21.968 97.3006 21.392C97.5726 20.816 97.7086 20.176 97.7086 19.472C97.7086 18.72 97.5726 18.064 97.3006 17.504C97.0286 16.928 96.6366 16.472 96.1246 16.136C95.6286 15.8 95.0206 15.632 94.3006 15.632C93.5966 15.632 92.9886 15.8 92.4766 16.136C91.9646 16.472 91.5726 16.928 91.3006 17.504C91.0446 18.064 90.9166 18.72 90.9166 19.472C90.9166 20.176 91.0446 20.816 91.3006 21.392C91.5566 21.968 91.9406 22.416 92.4526 22.736C92.9646 23.056 93.5806 23.216 94.3006 23.216ZM104.397 26V8.48H108.261V26H104.397ZM102.837 11.312V8.48H108.261V11.312H102.837ZM119.743 26V22.112H119.095V17.888C119.095 17.216 118.935 16.712 118.615 16.376C118.295 16.04 117.783 15.872 117.079 15.872C116.727 15.872 116.263 15.88 115.687 15.896C115.111 15.912 114.519 15.936 113.911 15.968C113.303 16 112.751 16.032 112.255 16.064V12.824C112.623 12.792 113.055 12.76 113.551 12.728C114.047 12.696 114.559 12.672 115.087 12.656C115.615 12.64 116.111 12.632 116.575 12.632C117.919 12.632 119.047 12.824 119.959 13.208C120.887 13.592 121.591 14.176 122.071 14.96C122.551 15.728 122.791 16.72 122.791 17.936V26H119.743ZM115.543 26.336C114.599 26.336 113.767 26.168 113.047 25.832C112.343 25.496 111.791 25.016 111.391 24.392C110.991 23.752 110.791 22.992 110.791 22.112C110.791 21.152 111.039 20.368 111.535 19.76C112.031 19.136 112.727 18.68 113.623 18.392C114.519 18.088 115.551 17.936 116.719 17.936H119.527V20.072H116.695C116.023 20.072 115.503 20.24 115.135 20.576C114.783 20.896 114.607 21.336 114.607 21.896C114.607 22.424 114.783 22.856 115.135 23.192C115.503 23.512 116.023 23.672 116.695 23.672C117.127 23.672 117.511 23.6 117.847 23.456C118.199 23.296 118.487 23.032 118.711 22.664C118.935 22.296 119.063 21.784 119.095 21.128L120.007 22.088C119.927 23 119.703 23.768 119.335 24.392C118.983 25.016 118.487 25.496 117.847 25.832C117.223 26.168 116.455 26.336 115.543 26.336Z" fill="white"/>
</svg>
